<mxfile host="app.diagrams.net" modified="2020-03-18T10:04:06.334Z" agent="Mozilla/5.0 (Macintosh; Intel Mac OS X 10_15_3) AppleWebKit/537.36 (KHTML, like Gecko) Chrome/80.0.3987.132 Safari/537.36" etag="iFshknoPhno5ztiUtLIB" version="12.8.5" type="github">
  <diagram id="CNU7w9sgYSYAunCOMGmn" name="Page-1">
    <mxGraphModel dx="946" dy="574" grid="1" gridSize="10" guides="1" tooltips="1" connect="1" arrows="1" fold="1" page="1" pageScale="1" pageWidth="827" pageHeight="1169" math="0" shadow="0">
      <root>
        <mxCell id="0" />
        <mxCell id="1" parent="0" />
        <mxCell id="dqXY3KG5e0j9-ZAYdP-f-37" style="edgeStyle=orthogonalEdgeStyle;rounded=0;orthogonalLoop=1;jettySize=auto;html=1;exitX=1;exitY=0.5;exitDx=0;exitDy=0;entryX=-0.021;entryY=0.769;entryDx=0;entryDy=0;entryPerimeter=0;" parent="1" source="LnWXDcP7S4IgxRe3qEan-37" target="dqXY3KG5e0j9-ZAYdP-f-25" edge="1">
          <mxGeometry relative="1" as="geometry" />
        </mxCell>
        <mxCell id="FWKqAyKB7Km8Vo4Kw_Tr-6" value="&lt;span style=&quot;text-align: left ; background-color: rgb(248 , 249 , 250)&quot;&gt;products&lt;/span&gt;" style="text;html=1;align=center;verticalAlign=middle;resizable=0;points=[];labelBackgroundColor=#ffffff;" vertex="1" connectable="0" parent="dqXY3KG5e0j9-ZAYdP-f-37">
          <mxGeometry x="0.2216" y="1" relative="1" as="geometry">
            <mxPoint as="offset" />
          </mxGeometry>
        </mxCell>
        <mxCell id="FWKqAyKB7Km8Vo4Kw_Tr-5" value="&lt;span style=&quot;font-size: 12px ; text-align: left ; background-color: rgb(248 , 249 , 250)&quot;&gt;status&lt;/span&gt;" style="edgeStyle=orthogonalEdgeStyle;rounded=0;orthogonalLoop=1;jettySize=auto;html=1;" edge="1" parent="1" source="dqXY3KG5e0j9-ZAYdP-f-34" target="FWKqAyKB7Km8Vo4Kw_Tr-1">
          <mxGeometry relative="1" as="geometry" />
        </mxCell>
        <mxCell id="dqXY3KG5e0j9-ZAYdP-f-18" value="BtkLetterOrderEntryOptions" style="swimlane;fontStyle=1;childLayout=stackLayout;horizontal=1;startSize=26;fillColor=#dae8fc;horizontalStack=0;resizeParent=1;resizeParentMax=0;resizeLast=0;collapsible=1;marginBottom=0;strokeColor=#6c8ebf;" parent="1" vertex="1">
          <mxGeometry x="20" y="216" width="220" height="130" as="geometry" />
        </mxCell>
        <mxCell id="dqXY3KG5e0j9-ZAYdP-f-19" value="- lettrerEntries: List&lt;BtkLetterEntry&gt;" style="text;strokeColor=none;fillColor=none;align=left;verticalAlign=top;spacingLeft=4;spacingRight=4;overflow=hidden;rotatable=0;points=[[0,0.5],[1,0.5]];portConstraint=eastwest;" parent="dqXY3KG5e0j9-ZAYdP-f-18" vertex="1">
          <mxGeometry y="26" width="220" height="26" as="geometry" />
        </mxCell>
        <mxCell id="FWKqAyKB7Km8Vo4Kw_Tr-11" value="- isColor: boolean" style="text;strokeColor=none;fillColor=none;align=left;verticalAlign=top;spacingLeft=4;spacingRight=4;overflow=hidden;rotatable=0;points=[[0,0.5],[1,0.5]];portConstraint=eastwest;" vertex="1" parent="dqXY3KG5e0j9-ZAYdP-f-18">
          <mxGeometry y="52" width="220" height="26" as="geometry" />
        </mxCell>
        <mxCell id="FWKqAyKB7Km8Vo4Kw_Tr-12" value="- isRecto: boolean" style="text;strokeColor=none;fillColor=none;align=left;verticalAlign=top;spacingLeft=4;spacingRight=4;overflow=hidden;rotatable=0;points=[[0,0.5],[1,0.5]];portConstraint=eastwest;" vertex="1" parent="dqXY3KG5e0j9-ZAYdP-f-18">
          <mxGeometry y="78" width="220" height="26" as="geometry" />
        </mxCell>
        <mxCell id="FWKqAyKB7Km8Vo4Kw_Tr-13" value="...." style="text;strokeColor=none;fillColor=none;align=left;verticalAlign=top;spacingLeft=4;spacingRight=4;overflow=hidden;rotatable=0;points=[[0,0.5],[1,0.5]];portConstraint=eastwest;" vertex="1" parent="dqXY3KG5e0j9-ZAYdP-f-18">
          <mxGeometry y="104" width="220" height="26" as="geometry" />
        </mxCell>
        <mxCell id="FWKqAyKB7Km8Vo4Kw_Tr-8" style="edgeStyle=orthogonalEdgeStyle;rounded=0;orthogonalLoop=1;jettySize=auto;html=1;exitX=1;exitY=0.5;exitDx=0;exitDy=0;" edge="1" parent="1" source="dqXY3KG5e0j9-ZAYdP-f-10" target="dqXY3KG5e0j9-ZAYdP-f-18">
          <mxGeometry relative="1" as="geometry" />
        </mxCell>
        <mxCell id="FWKqAyKB7Km8Vo4Kw_Tr-9" style="edgeStyle=orthogonalEdgeStyle;rounded=0;orthogonalLoop=1;jettySize=auto;html=1;exitX=1;exitY=0.5;exitDx=0;exitDy=0;entryX=0;entryY=0.5;entryDx=0;entryDy=0;" edge="1" parent="1" source="dqXY3KG5e0j9-ZAYdP-f-19" target="LnWXDcP7S4IgxRe3qEan-38">
          <mxGeometry relative="1" as="geometry" />
        </mxCell>
        <mxCell id="FWKqAyKB7Km8Vo4Kw_Tr-18" style="edgeStyle=orthogonalEdgeStyle;rounded=0;orthogonalLoop=1;jettySize=auto;html=1;exitX=1;exitY=0.5;exitDx=0;exitDy=0;entryX=0;entryY=0.5;entryDx=0;entryDy=0;" edge="1" parent="1" source="FWKqAyKB7Km8Vo4Kw_Tr-14" target="LnWXDcP7S4IgxRe3qEan-11">
          <mxGeometry relative="1" as="geometry" />
        </mxCell>
        <mxCell id="dqXY3KG5e0j9-ZAYdP-f-24" value="         BtkLetterEntryProduct" style="swimlane;fontStyle=1;childLayout=stackLayout;horizontal=1;startSize=26;fillColor=#e1d5e7;horizontalStack=0;resizeParent=1;resizeParentMax=0;resizeLast=0;collapsible=1;marginBottom=0;align=left;strokeColor=#9673a6;" parent="1" vertex="1">
          <mxGeometry x="580" y="20" width="190" height="104" as="geometry" />
        </mxCell>
        <mxCell id="dqXY3KG5e0j9-ZAYdP-f-25" value="- product: Product" style="text;strokeColor=none;fillColor=none;align=left;verticalAlign=top;spacingLeft=4;spacingRight=4;overflow=hidden;rotatable=0;points=[[0,0.5],[1,0.5]];portConstraint=eastwest;" parent="dqXY3KG5e0j9-ZAYdP-f-24" vertex="1">
          <mxGeometry y="26" width="190" height="26" as="geometry" />
        </mxCell>
        <mxCell id="dqXY3KG5e0j9-ZAYdP-f-26" value="- price : Double" style="text;strokeColor=none;fillColor=none;align=left;verticalAlign=top;spacingLeft=4;spacingRight=4;overflow=hidden;rotatable=0;points=[[0,0.5],[1,0.5]];portConstraint=eastwest;" parent="dqXY3KG5e0j9-ZAYdP-f-24" vertex="1">
          <mxGeometry y="52" width="190" height="26" as="geometry" />
        </mxCell>
        <mxCell id="dqXY3KG5e0j9-ZAYdP-f-27" value="- taxValue: Double" style="text;strokeColor=none;fillColor=none;align=left;verticalAlign=top;spacingLeft=4;spacingRight=4;overflow=hidden;rotatable=0;points=[[0,0.5],[1,0.5]];portConstraint=eastwest;" parent="dqXY3KG5e0j9-ZAYdP-f-24" vertex="1">
          <mxGeometry y="78" width="190" height="26" as="geometry" />
        </mxCell>
        <mxCell id="LnWXDcP7S4IgxRe3qEan-11" value="Address" style="swimlane;fontStyle=1;align=center;verticalAlign=top;childLayout=stackLayout;horizontal=1;startSize=26;horizontalStack=0;resizeParent=1;resizeParentMax=0;resizeLast=0;collapsible=1;marginBottom=0;fillColor=#dae8fc;strokeColor=#6c8ebf;" parent="1" vertex="1">
          <mxGeometry x="630" y="190" width="160" height="42" as="geometry" />
        </mxCell>
        <mxCell id="FWKqAyKB7Km8Vo4Kw_Tr-1" value="OrderStatusApictEnum" style="swimlane;fontStyle=0;childLayout=stackLayout;horizontal=1;startSize=26;fillColor=#dae8fc;horizontalStack=0;resizeParent=1;resizeParentMax=0;resizeLast=0;collapsible=1;marginBottom=0;strokeColor=#6c8ebf;" vertex="1" parent="1">
          <mxGeometry x="577" y="294" width="250" height="52" as="geometry" />
        </mxCell>
        <mxCell id="LnWXDcP7S4IgxRe3qEan-36" value="              BtkLetterEntry" style="swimlane;fontStyle=1;childLayout=stackLayout;horizontal=1;startSize=26;fillColor=#e1d5e7;horizontalStack=0;resizeParent=1;resizeParentMax=0;resizeLast=0;collapsible=1;marginBottom=0;align=left;strokeColor=#9673a6;" parent="1" vertex="1">
          <mxGeometry x="280" y="130" width="230" height="232" as="geometry" />
        </mxCell>
        <mxCell id="LnWXDcP7S4IgxRe3qEan-37" value="- products: List&lt;BtkLetterEntryProduct&gt;" style="text;strokeColor=none;fillColor=none;align=left;verticalAlign=top;spacingLeft=4;spacingRight=4;overflow=hidden;rotatable=0;points=[[0,0.5],[1,0.5]];portConstraint=eastwest;" parent="LnWXDcP7S4IgxRe3qEan-36" vertex="1">
          <mxGeometry y="26" width="230" height="26" as="geometry" />
        </mxCell>
        <mxCell id="FWKqAyKB7Km8Vo4Kw_Tr-14" value="- recipientAddress: Address" style="text;strokeColor=none;fillColor=none;align=left;verticalAlign=top;spacingLeft=4;spacingRight=4;overflow=hidden;rotatable=0;points=[[0,0.5],[1,0.5]];portConstraint=eastwest;" vertex="1" parent="LnWXDcP7S4IgxRe3qEan-36">
          <mxGeometry y="52" width="230" height="26" as="geometry" />
        </mxCell>
        <mxCell id="LnWXDcP7S4IgxRe3qEan-38" value="- totalPrice: Double" style="text;strokeColor=none;fillColor=none;align=left;verticalAlign=top;spacingLeft=4;spacingRight=4;overflow=hidden;rotatable=0;points=[[0,0.5],[1,0.5]];portConstraint=eastwest;" parent="LnWXDcP7S4IgxRe3qEan-36" vertex="1">
          <mxGeometry y="78" width="230" height="26" as="geometry" />
        </mxCell>
        <mxCell id="LnWXDcP7S4IgxRe3qEan-39" value="- totalTax: Double" style="text;strokeColor=none;fillColor=none;align=left;verticalAlign=top;spacingLeft=4;spacingRight=4;overflow=hidden;rotatable=0;points=[[0,0.5],[1,0.5]];portConstraint=eastwest;" parent="LnWXDcP7S4IgxRe3qEan-36" vertex="1">
          <mxGeometry y="104" width="230" height="32" as="geometry" />
        </mxCell>
        <mxCell id="dqXY3KG5e0j9-ZAYdP-f-34" value="- status: OrderStatusApictEnum" style="text;strokeColor=none;fillColor=none;align=left;verticalAlign=top;spacingLeft=4;spacingRight=4;overflow=hidden;rotatable=0;points=[[0,0.5],[1,0.5]];portConstraint=eastwest;" parent="LnWXDcP7S4IgxRe3qEan-36" vertex="1">
          <mxGeometry y="136" width="230" height="32" as="geometry" />
        </mxCell>
        <mxCell id="CpVTMXKiFlSHCYYFx09B-1" value="- statusDate: Date" style="text;strokeColor=none;fillColor=none;align=left;verticalAlign=top;spacingLeft=4;spacingRight=4;overflow=hidden;rotatable=0;points=[[0,0.5],[1,0.5]];portConstraint=eastwest;" parent="LnWXDcP7S4IgxRe3qEan-36" vertex="1">
          <mxGeometry y="168" width="230" height="32" as="geometry" />
        </mxCell>
        <mxCell id="dqXY3KG5e0j9-ZAYdP-f-35" value="- trackingId: int" style="text;strokeColor=none;fillColor=none;align=left;verticalAlign=top;spacingLeft=4;spacingRight=4;overflow=hidden;rotatable=0;points=[[0,0.5],[1,0.5]];portConstraint=eastwest;" parent="LnWXDcP7S4IgxRe3qEan-36" vertex="1">
          <mxGeometry y="200" width="230" height="32" as="geometry" />
        </mxCell>
        <mxCell id="dqXY3KG5e0j9-ZAYdP-f-9" value="AbstractOrderEntry" style="swimlane;fontStyle=1;childLayout=stackLayout;horizontal=1;startSize=26;fillColor=#dae8fc;horizontalStack=0;resizeParent=1;resizeParentMax=0;resizeLast=0;collapsible=1;marginBottom=0;strokeColor=#6c8ebf;" parent="1" vertex="1">
          <mxGeometry x="20" y="42" width="220" height="94" as="geometry" />
        </mxCell>
        <mxCell id="dqXY3KG5e0j9-ZAYdP-f-10" value="- options: AbstractOrderEntryOptions" style="text;strokeColor=none;fillColor=none;align=left;verticalAlign=top;spacingLeft=4;spacingRight=4;overflow=hidden;rotatable=0;points=[[0,0.5],[1,0.5]];portConstraint=eastwest;fontStyle=0" parent="dqXY3KG5e0j9-ZAYdP-f-9" vertex="1">
          <mxGeometry y="26" width="220" height="34" as="geometry" />
        </mxCell>
        <mxCell id="FWKqAyKB7Km8Vo4Kw_Tr-19" value="...." style="text;strokeColor=none;fillColor=none;align=left;verticalAlign=top;spacingLeft=4;spacingRight=4;overflow=hidden;rotatable=0;points=[[0,0.5],[1,0.5]];portConstraint=eastwest;fontStyle=0" vertex="1" parent="dqXY3KG5e0j9-ZAYdP-f-9">
          <mxGeometry y="60" width="220" height="34" as="geometry" />
        </mxCell>
      </root>
    </mxGraphModel>
  </diagram>
</mxfile>
